<svg aria-hidden="true" style="position: absolute; width: 0; height: 0; overflow: hidden;" version="1.1" xmlns="http://www.w3.org/2000/svg" xmlns:xlink="http://www.w3.org/1999/xlink">
<defs>
<symbol id="icon-persona-negra" viewBox="0 0 32 32">
<path d="M16 16c2.946 0 5.333-2.388 5.333-5.333s-2.388-5.333-5.333-5.333v0c-2.946 0-5.333 2.388-5.333 5.333s2.388 5.333 5.333 5.333v0zM16 18.667c-3.561 0-10.667 1.787-10.667 5.333v1.333c0 0.732 0.599 1.333 1.333 1.333h18.667c0.732 0 1.333-0.601 1.333-1.333v-1.333c0-3.547-7.108-5.333-10.667-5.333z"></path>
</symbol>
<symbol id="icon-telefono-negro" viewBox="0 0 32 32">
<path d="M24.882 19.774l-3.268-0.373c-0.090-0.011-0.194-0.018-0.3-0.018-0.707 0-1.347 0.287-1.81 0.75l-2.368 2.368c-3.669-1.894-6.585-4.81-8.427-8.372l-0.051-0.108 2.382-2.377c0.463-0.463 0.75-1.103 0.75-1.81 0-0.106-0.006-0.21-0.019-0.312l0.001 0.012-0.373-3.243c-0.155-1.287-1.24-2.276-2.557-2.276-0.001 0-0.002 0-0.003 0h-2.226c-1.454 0-2.663 1.209-2.574 2.661 0.683 10.987 9.47 19.762 20.444 20.444 1.452 0.089 2.663-1.12 2.663-2.574v-2.226c0-0.004 0-0.008 0-0.012 0-1.308-0.985-2.386-2.253-2.532l-0.012-0.001z"></path>
</symbol>
<symbol id="icon-correo-electrnico-negro" viewBox="0 0 32 32">
<path d="M26.667 5.333h-21.333c-1.467 0-2.652 1.2-2.652 2.667l-0.014 16c0 1.467 1.2 2.667 2.667 2.667h21.333c1.467 0 2.667-1.2 2.667-2.667v-16c0-1.467-1.2-2.667-2.667-2.667zM26.133 11.001l-9.426 5.892c-0.201 0.126-0.446 0.2-0.708 0.2s-0.506-0.075-0.713-0.204l0.006 0.003-9.426-5.892c-0.336-0.201-0.557-0.562-0.557-0.975 0-0.625 0.507-1.132 1.132-1.132 0.233 0 0.449 0.070 0.629 0.19l-0.004-0.003 8.933 5.586 8.933-5.588c0.176-0.118 0.392-0.188 0.624-0.188 0.625 0 1.132 0.507 1.132 1.132 0 0.413-0.221 0.775-0.552 0.972l-0.005 0.003z"></path>
</symbol>
<symbol id="icon-cono-revisado" viewBox="0 0 34 32">
<path d="M4.267 0h25.6c2.356 0 4.267 1.91 4.267 4.267v23.467c0 2.356-1.91 4.267-4.267 4.267h-25.6c-2.356 0-4.267-1.91-4.267-4.267v-23.467c0-2.356 1.91-4.267 4.267-4.267z"></path>
<path fill="#fff" style="fill: var(--color2, #fff); stroke: var(--color2, #fff)" stroke="#fff" stroke-linejoin="miter" stroke-linecap="butt" stroke-miterlimit="4" stroke-width="0.4267" d="M8.442 16.538l-0.147-0.141-0.147 0.139-2.057 1.95 0.162 0.156 7.605 7.253 0.147-0.141 16.171-15.426-0.162-0.154-2.029-1.935-0.147 0.141-13.98 13.325-5.417-5.167z"></path>
</symbol>
<symbol id="icon-enviar-cono" viewBox="0 0 32 32">
<path fill="#fff" style="fill: var(--color2, #fff)" d="M32 0l-32 18 10.227 3.787 15.773-14.787-11.997 16.187 0.009 0.003-0.012-0.003v8.813l5.735-6.691 7.267 2.691 4.999-28z"></path>
</symbol>
<symbol id="icon-sobre" viewBox="0 0 43 32">
<path d="M38.667 0h-34.667c-2.205 0-4 1.795-4 4v24c0 2.205 1.795 4 4 4h34.667c2.205 0 4-1.795 4-4v-24c0-2.205-1.795-4-4-4zM38.667 2.667c0.181 0 0.355 0.037 0.512 0.104l-17.845 15.467-17.845-15.467c0.151-0.065 0.327-0.104 0.512-0.104h34.667zM38.667 29.333h-34.667c-0.736 0-1.333-0.597-1.333-1.333v0-22.413l17.792 15.421c0.233 0.203 0.539 0.327 0.875 0.327s0.642-0.124 0.876-0.328l-0.002 0.001 17.792-15.421v22.413c0 0.736-0.597 1.333-1.333 1.333v0z"></path>
</symbol>
<symbol id="icon-telefono-inteligente" viewBox="0 0 20 32">
<path d="M17 0h-14c-1.654 0-3 1.346-3 3v26c0 1.654 1.346 3 3 3h14c1.654 0 3-1.346 3-3v-26c0-1.654-1.346-3-3-3zM3 2h14c0.552 0 1 0.448 1 1v0 21h-16v-21c0-0.552 0.448-1 1-1v0zM17 30h-14c-0.552 0-1-0.448-1-1v0-3h16v3c0 0.552-0.448 1-1 1v0z"></path>
<path d="M4.708 27.478c0.18 0.163 0.293 0.399 0.293 0.66s-0.113 0.497-0.292 0.659l-0.001 0.001c-0.186 0.17-0.435 0.275-0.708 0.275s-0.522-0.104-0.709-0.275l0.001 0.001c-0.18-0.163-0.293-0.399-0.293-0.66s0.113-0.497 0.292-0.659l0.001-0.001c0.186-0.17 0.435-0.275 0.708-0.275s0.522 0.104 0.709 0.275l-0.001-0.001z"></path>
</symbol>
<symbol id="icon-Group-1" viewBox="0 0 72 32">
<path fill="#f5f4fa" style="fill: var(--color1, #f5f4fa)" d="M1.067 0h69.867c0.589 0 1.067 0.478 1.067 1.067v29.867c0 0.589-0.478 1.067-1.067 1.067h-69.867c-0.589 0-1.067-0.478-1.067-1.067v-29.867c0-0.589 0.478-1.067 1.067-1.067z"></path>
<path fill="#212121" style="fill: var(--color4, #212121)" d="M44.618 19.557l-4.925-4.961 0.547-2.693c0.131 0.053 0.283 0.084 0.442 0.085h0.004c0.004 0 0.010 0 0.015 0 0.696 0 1.259-0.564 1.259-1.259s-0.564-1.259-1.259-1.259c-0.696 0-1.259 0.564-1.259 1.259 0 0.151 0.027 0.296 0.076 0.431l-0.003-0.009-2.893 0.353-4.719-4.744c-0.056-0.057-0.134-0.093-0.22-0.093h-0c-0.082 0.001-0.16 0.033-0.218 0.091l-0.882 0.877c-0.056 0.056-0.091 0.134-0.091 0.22s0.035 0.164 0.091 0.22v0l0.475 0.481c-1.839 3.382-1.242 7.571 1.47 10.303 0.025 0.024 0.054 0.043 0.085 0.057-0.019 0.096-0.030 0.206-0.030 0.319v3.61h-3.733c-0.859 0.001-1.555 0.697-1.556 1.555v0.622c0 0.172 0.139 0.311 0.311 0.311h14.311c0.172 0 0.311-0.139 0.311-0.311v-0.622c-0.001-0.859-0.697-1.554-1.555-1.555h-3.733v-1.599c0.585 0.123 1.181 0.185 1.778 0.187 1.505-0.002 2.919-0.387 4.152-1.063l-0.045 0.023 0.477 0.48c0.058 0.059 0.137 0.093 0.22 0.093 0.085-0.001 0.162-0.035 0.218-0.091h-0l0.882-0.877c0.056-0.056 0.091-0.134 0.091-0.22s-0.035-0.164-0.091-0.22v0zM40.247 10.303c0.112-0.111 0.267-0.18 0.438-0.18 0.343 0 0.622 0.278 0.622 0.622s-0.278 0.622-0.621 0.622h-0.002c-0.342-0.002-0.619-0.28-0.619-0.622 0-0.172 0.070-0.328 0.183-0.441l0-0h-0.001zM39.514 12.347l-0.349 1.718-0.686-0.69 1.035-1.029zM39.161 11.821l-1.12 1.114-0.866-0.871 1.986-0.242zM40.669 23.467c0.515 0 0.933 0.418 0.933 0.933v0 0.311h-13.689v-0.311c0-0.515 0.418-0.933 0.933-0.933v0h11.822zM36.314 22.222v0.622h-3.111v-0.622h3.111zM33.202 21.6v-2.365c0-0.755 0.698-1.369 1.555-1.369s1.556 0.614 1.556 1.369v2.365h-3.111zM36.936 20.611v-1.375c0-1.098-0.977-1.991-2.178-1.991-0.010-0-0.022-0-0.034-0-0.789 0-1.482 0.412-1.875 1.033l-0.005 0.009c-1.376-1.448-2.223-3.41-2.223-5.57 0-1.35 0.331-2.623 0.915-3.742l-0.021 0.045 10.851 10.913c-1.063 0.552-2.321 0.876-3.655 0.876-0.629 0-1.242-0.072-1.829-0.208l0.054 0.011zM43.521 20.212l-12.283-12.355 0.44-0.439 4.629 4.655c0.002 0 0.003 0.004 0.006 0.006l7.65 7.695-0.441 0.439z"></path>
<path fill="#2196f3" style="fill: var(--color5, #2196f3)" d="M34.761 18.489h-0.003c-0 0-0.001 0-0.001 0-0.515 0-0.933 0.418-0.933 0.933s0.417 0.933 0.932 0.933h0.003c0 0 0.001 0 0.001 0 0.515 0 0.933-0.418 0.933-0.933s-0.417-0.933-0.932-0.933h-0zM34.978 19.643c-0.056 0.056-0.134 0.090-0.219 0.090-0.172 0-0.311-0.139-0.311-0.311 0-0.086 0.035-0.164 0.092-0.221l0-0c0.058-0.058 0.136-0.090 0.218-0.091 0.171 0.001 0.31 0.14 0.31 0.311 0 0.086-0.035 0.164-0.092 0.221l-0 0h0.003z"></path>
</symbol>
<symbol id="icon-Group-2" viewBox="0 0 72 32">
<path fill="#f5f4fa" style="fill: var(--color1, #f5f4fa)" d="M1.067 0h69.867c0.589 0 1.067 0.478 1.067 1.067v29.867c0 0.589-0.478 1.067-1.067 1.067h-69.867c-0.589 0-1.067-0.478-1.067-1.067v-29.867c0-0.589 0.478-1.067 1.067-1.067z"></path>
<path fill="#212121" style="fill: var(--color4, #212121)" d="M44.923 15.592c-0.001-4.931-3.999-8.927-8.93-8.926s-8.927 3.999-8.926 8.93c0.001 3.96 2.58 7.317 6.149 8.485l0.063 0.018c0.035 0.011 0.072 0.017 0.109 0.017 0.070 0 0.139-0.019 0.2-0.055 0.079-0.047 0.138-0.121 0.165-0.208l2.255-7.146c0.614-0.003 1.11-0.501 1.11-1.115 0-0.002 0-0.004-0-0.006v0c-0.003-0.614-0.501-1.11-1.116-1.11-0.002 0-0.004 0-0.006 0h0c-0.174 0.001-0.339 0.042-0.485 0.115l0.006-0.003-2.978-2.979c-0.067-0.064-0.158-0.104-0.258-0.104-0.205 0-0.372 0.167-0.372 0.372 0 0.1 0.040 0.191 0.104 0.258l-0-0 2.977 2.98c-0.070 0.14-0.112 0.306-0.112 0.481 0 0.351 0.165 0.663 0.422 0.864l0.002 0.002-2.148 6.809c-4.245-1.564-6.419-6.273-4.855-10.519s6.273-6.419 10.519-4.855c4.245 1.564 6.419 6.273 4.855 10.518-0.784 2.089-2.335 3.737-4.301 4.631l-0.051 0.021-0.232-1.093c-0.037-0.17-0.186-0.295-0.364-0.295-0.095 0-0.182 0.036-0.248 0.095l0-0-2.238 1.998c-0.077 0.068-0.125 0.168-0.125 0.278 0 0.165 0.108 0.305 0.257 0.354l0.003 0.001 2.858 0.912c0.034 0.011 0.073 0.018 0.114 0.018 0.205 0 0.372-0.166 0.372-0.372 0-0.028-0.003-0.055-0.009-0.080l0 0.002-0.228-1.073c3.224-1.385 5.442-4.533 5.442-8.2 0-0.007 0-0.013-0-0.020v0.001zM35.995 15.221c0.205 0 0.372 0.167 0.372 0.372s-0.167 0.372-0.372 0.372v0c-0.205 0-0.372-0.167-0.372-0.372s0.167-0.372 0.372-0.372v0zM37.221 23.891l1.274-1.137 0.352 1.657-1.626-0.52z"></path>
<path fill="#2196f3" style="fill: var(--color5, #2196f3)" d="M35.623 8.525v0.744c0 0.205 0.167 0.372 0.372 0.372s0.372-0.167 0.372-0.372v0-0.744c0-0.205-0.167-0.372-0.372-0.372s-0.372 0.167-0.372 0.372v0zM28.928 15.221c-0.205 0-0.372 0.167-0.372 0.372s0.167 0.372 0.372 0.372h0.744c0.205 0 0.372-0.167 0.372-0.372s-0.167-0.372-0.372-0.372h-0.744zM43.063 15.965c0.205 0 0.372-0.167 0.372-0.372s-0.167-0.372-0.372-0.372v0h-0.744c-0.205 0-0.372 0.167-0.372 0.372s0.167 0.372 0.372 0.372h0.744z"></path>
</symbol>
<symbol id="icon-Grupo-3" viewBox="0 0 72 32">
<path fill="#f5f4fa" style="fill: var(--color1, #f5f4fa)" d="M1.067 0h69.867c0.589 0 1.067 0.478 1.067 1.067v29.867c0 0.589-0.478 1.067-1.067 1.067h-69.867c-0.589 0-1.067-0.478-1.067-1.067v-29.867c0-0.589 0.478-1.067 1.067-1.067z"></path>
<path fill="#2196f3" style="fill: var(--color5, #2196f3)" d="M35.373 15.396h0.622v2.799h-0.622v-2.799zM37.861 16.64h0.622v1.555h-0.622v-1.555zM32.886 17.573h0.622v0.622h-0.622v-0.622zM31.020 17.262h0.622v0.933h-0.622v-0.933z"></path>
<path fill="#212121" style="fill: var(--color4, #212121)" d="M27.599 23.17h14.926c0.515 0 0.933-0.418 0.933-0.933v-1.244c0-0.515-0.418-0.933-0.933-0.933v0h-0.311v-7.755l1.766-1.673c0.121 0.061 0.264 0.097 0.415 0.097 0.518 0 0.938-0.42 0.938-0.938s-0.42-0.938-0.938-0.938c-0.518 0-0.938 0.42-0.938 0.938 0 0.144 0.032 0.28 0.090 0.402l-0.002-0.006-1.331 1.262v-0.717c-0-0.515-0.418-0.933-0.933-0.933h-12.438c-0.515 0-0.933 0.418-0.933 0.933v0 9.329h-0.311c-0.515 0-0.933 0.418-0.933 0.933v1.244c0 0.515 0.418 0.933 0.933 0.933v0zM44.391 9.488c0.172 0 0.311 0.139 0.311 0.311s-0.139 0.311-0.311 0.311v0c-0.172 0-0.311-0.139-0.311-0.311s0.139-0.311 0.311-0.311v0zM28.532 10.732c0-0.172 0.139-0.311 0.311-0.311h12.438c0.172 0 0.311 0.139 0.311 0.311v1.306l-0.622 0.591v-1.275c0-0.172-0.139-0.311-0.311-0.311h-11.194c-0.172 0-0.311 0.139-0.311 0.311v7.774c0 0.172 0.139 0.311 0.311 0.311h11.194c0.171 0 0.311-0.139 0.311-0.311v-5.643l0.622-0.589v7.165h-13.060v-9.328zM31.331 14.774c-0.001 0-0.002 0-0.003 0-0.515 0-0.933 0.418-0.933 0.933s0.418 0.933 0.933 0.933c0.252 0 0.481-0.1 0.649-0.263l-0 0 1.081 0.542c0.040 0.021 0.088 0.033 0.139 0.033 0.092 0 0.175-0.040 0.232-0.104l0-0 2.298-2.585 2.259 1.693c0.121 0.091 0.29 0.081 0.4-0.023l1.963-1.859v4.743h-10.572v-7.152h10.572v1.552l-2.2 2.083-2.278-1.707c-0.051-0.039-0.116-0.062-0.187-0.062-0.092 0-0.175 0.040-0.232 0.104l-0 0-2.329 2.621-0.871-0.435c0.006-0.033 0.010-0.072 0.012-0.111l0-0.002c0-0.515-0.418-0.933-0.933-0.933v0zM31.642 15.707c0 0.172-0.139 0.311-0.311 0.311s-0.311-0.139-0.311-0.311v0c0-0.172 0.139-0.311 0.311-0.311s0.311 0.139 0.311 0.311v0zM33.507 20.682h3.11v0.311c0 0.172-0.139 0.311-0.311 0.311h-2.488c-0.172 0-0.311-0.139-0.311-0.311v0-0.311zM27.289 20.993c0-0.172 0.139-0.311 0.311-0.311h5.286v0.311c0 0.515 0.418 0.933 0.933 0.933h2.488c0.515 0 0.933-0.418 0.933-0.933v0-0.311h5.286c0.172 0 0.311 0.139 0.311 0.311v1.244c0 0.172-0.139 0.311-0.311 0.311h-14.926c-0.172 0-0.311-0.139-0.311-0.311v0-1.244z"></path>
</symbol>
<symbol id="icon-Grupo-4" viewBox="0 0 72 32">
<path fill="#f5f4fa" style="fill: var(--color1, #f5f4fa)" d="M1.067 0h69.867c0.589 0 1.067 0.478 1.067 1.067v29.867c0 0.589-0.478 1.067-1.067 1.067h-69.867c-0.589 0-1.067-0.478-1.067-1.067v-29.867c0-0.589 0.478-1.067 1.067-1.067z"></path>
<path fill="#2196f3" style="fill: var(--color5, #2196f3)" d="M45.318 9.306c-0.037-0.111-0.133-0.194-0.249-0.211l-0.002-0-1.114-0.162-0.499-1.010c-0.105-0.213-0.453-0.213-0.558 0l-0.499 1.010-1.115 0.162c-0.152 0.022-0.267 0.151-0.267 0.308 0 0.088 0.036 0.167 0.094 0.223l0 0 0.807 0.786-0.19 1.11c-0.020 0.117 0.028 0.235 0.123 0.304 0.097 0.070 0.223 0.079 0.328 0.024l0.997-0.525 0.997 0.524c0.042 0.022 0.092 0.036 0.145 0.036 0.069 0 0.132-0.022 0.184-0.060l-0.001 0.001c0.096-0.069 0.144-0.187 0.123-0.304l-0.19-1.11 0.807-0.786c0.058-0.057 0.094-0.136 0.094-0.223 0-0.034-0.006-0.067-0.016-0.098l0.001 0.002zM43.882 10.080c-0.058 0.056-0.094 0.135-0.094 0.223 0 0.019 0.002 0.037 0.005 0.055l-0-0.002 0.111 0.65-0.583-0.307c-0.042-0.023-0.092-0.036-0.145-0.036s-0.103 0.013-0.147 0.037l0.002-0.001-0.583 0.307 0.111-0.65c0.003-0.016 0.005-0.034 0.005-0.053 0-0.087-0.036-0.166-0.094-0.222l-0-0-0.473-0.461 0.653-0.095c0.101-0.015 0.189-0.078 0.234-0.17l0.292-0.591 0.292 0.591c0.046 0.092 0.133 0.156 0.234 0.17l0.653 0.095-0.472 0.461zM41.911 18.638h-0.622v0.622h0.622v-0.622zM41.911 19.883h-0.622v0.622h0.622v-0.622zM42.533 19.26h-0.622v0.622h0.622v-0.622zM41.289 19.26h-0.622v0.622h0.622v-0.622zM39.733 22.060h-0.622v0.622h0.622v-0.622zM39.733 23.305h-0.622v0.622h0.622v-0.622zM40.356 22.683h-0.622v0.622h0.622v-0.622zM39.111 22.683h-0.622v0.622h0.622v-0.622zM36 20.816h-0.622v0.622h0.622v-0.622zM36 22.060h-0.622v0.622h0.622v-0.622zM36.622 21.438h-0.622v0.622h0.622v-0.622zM35.378 21.438h-0.622v0.622h0.622v-0.622zM30.089 10.238h-0.622v0.622h0.622v-0.622zM30.089 11.482h-0.622v0.622h0.622v-0.622zM30.711 10.86h-0.622v0.622h0.622v-0.622zM29.467 10.86h-0.622v0.622h0.622v-0.622z"></path>
<path fill="#212121" style="fill: var(--color4, #212121)" d="M41.084 14.926c-0.163-0.22-0.408-0.371-0.688-0.41l-0.005-0.001c-0.045-0.007-0.096-0.011-0.148-0.011-0.24 0-0.46 0.081-0.636 0.218l0.002-0.002-0.73 0.56-1.107 0.827-0.792-0.316c1.413-0.634 2.4-2.046 2.4-3.687 0-2.23-1.822-4.045-4.061-4.045s-4.061 1.814-4.061 4.045c0 0.808 0.242 1.56 0.653 2.193l-1.615-0.014c-0.005 0-0.009 0.003-0.014 0.003-0.033 0.002-0.064 0.008-0.093 0.019l0.002-0.001c-0.007 0.003-0.015 0.004-0.022 0.008-0.004 0.001-0.007 0.002-0.011 0.004l-1.886 0.931c-0 0-0.001 0-0.001 0.001l-1.104 0.531c-0.014 0.006-0.026 0.013-0.038 0.021l0.001-0.001c-0.281 0.189-0.464 0.506-0.464 0.865 0 0.173 0.042 0.336 0.117 0.48l-0.003-0.006c0.128 0.247 0.346 0.433 0.609 0.516l0.007 0.002c0.094 0.031 0.201 0.048 0.313 0.048 0.18 0 0.349-0.046 0.496-0.126l-0.005 0.003 0.81-0.43 1.321-0.682 0.791-0.005-3.956 3.937c-0.177 0.175-0.286 0.417-0.286 0.685 0 0.001 0 0.002 0 0.002v-0c0 0.001 0 0.001 0 0.002 0 0.268 0.109 0.511 0.286 0.686l0 0c0.176 0.175 0.418 0.283 0.686 0.283 0.001 0 0.002 0 0.002 0h-0c0.25 0 0.498-0.094 0.689-0.283l0.767-0.763 1.015-0.758 0.525 0.523-1.809 1.802c-0.177 0.174-0.286 0.417-0.286 0.685 0 0.001 0 0.002 0 0.003v-0c0.001 0.536 0.436 0.971 0.973 0.971 0 0 0.001 0 0.001 0h-0c0.249 0 0.499-0.094 0.689-0.283l2.618-2.609c0.004-0.004 0.009-0.005 0.013-0.009l3.013-3.301 2.025 0.288c0.015 0.002 0.029 0.003 0.044 0.003 0.038 0 0.074-0.009 0.109-0.022 0.010-0.004 0.019-0.009 0.029-0.014 0.011-0.006 0.023-0.009 0.034-0.016l1.874-1.244c0.007-0.005 0.011-0.012 0.017-0.017 0.007-0.006 0.017-0.008 0.024-0.015l0.742-0.695c0.203-0.19 0.329-0.459 0.329-0.758 0-0.233-0.077-0.449-0.207-0.622l0.002 0.003zM27.909 17.033c-0.057 0.032-0.125 0.050-0.198 0.050-0.046 0-0.090-0.007-0.131-0.021l0.003 0.001c-0.172-0.054-0.295-0.212-0.295-0.398 0-0.138 0.067-0.26 0.17-0.336l0.001-0.001 0.766-0.369 0.185 0.539 0.077 0.227-0.579 0.307zM29.949 15.966l-0.903 0.467-0.149-0.435-0.107-0.313 1.182-0.584-0.023 0.866zM38.757 12.105c0 0.536-0.128 1.041-0.349 1.493l-2.439-1.108c-0.025-0.335-0.2-0.626-0.456-0.807l-0.003-0.002 0.854-2.835c1.387 0.441 2.394 1.735 2.394 3.26zM31.881 12.105c0-1.887 1.542-3.422 3.438-3.422 0.147 0 0.292 0.013 0.435 0.031l-0.835 2.773c-0.011 0-0.022-0.003-0.033-0.003-0.602 0-1.093 0.488-1.093 1.089s0.49 1.089 1.093 1.089c0.405 0 0.755-0.223 0.944-0.551l2.253 1.024c-0.627 0.843-1.63 1.394-2.763 1.394-1.896 0-3.438-1.535-3.438-3.422zM35.355 12.571c0 0.257-0.211 0.467-0.47 0.467-0 0-0.001 0-0.001 0-0.258 0-0.468-0.209-0.469-0.467v-0c0-0.257 0.211-0.467 0.47-0.467s0.47 0.209 0.47 0.467zM28.105 21.335c-0.064 0.063-0.152 0.103-0.249 0.103s-0.185-0.039-0.249-0.102l0 0c-0.064-0.063-0.103-0.15-0.103-0.246s0.039-0.183 0.103-0.246l0-0 0.561-0.559 0.497 0.494-0.559 0.557zM29.979 23.513c-0.064 0.063-0.152 0.103-0.249 0.103s-0.185-0.039-0.249-0.102l0 0c-0.064-0.063-0.103-0.15-0.103-0.246s0.039-0.183 0.103-0.246l0-0 0.562-0.559 0.497 0.494-0.56 0.557zM32.010 21.49l-0.001 0.001-1.030 1.027-0.497-0.494 1.030-1.025c0.023-0.023 0.038-0.051 0.052-0.079 0.004-0.008 0.012-0.015 0.015-0.023 0.010-0.024 0.011-0.050 0.015-0.075 0.002-0.014 0.008-0.028 0.008-0.043 0-0.021-0.007-0.041-0.012-0.061-0.004-0.019-0.004-0.038-0.011-0.056-0.014-0.031-0.032-0.057-0.053-0.081l0 0c-0.006-0.007-0.008-0.015-0.015-0.022h-0.001l-0.001-0.001-0.937-0.933c-0.010-0.010-0.023-0.014-0.034-0.023-0.015-0.012-0.031-0.023-0.049-0.033l-0.002-0.001c-0.015-0.007-0.034-0.014-0.053-0.018l-0.002-0c-0.017-0.006-0.038-0.010-0.059-0.012l-0.001-0c-0.004-0-0.009-0-0.013-0-0.015 0-0.030 0.001-0.044 0.003l0.002-0c-0.021 0.003-0.040 0.005-0.061 0.012s-0.037 0.016-0.055 0.026c-0.012 0.006-0.025 0.009-0.035 0.017l-1.035 0.772-0.525-0.523 1.399-1.392 2.543 2.502-0.541 0.536zM35.988 17.397c-0.009-0.001-0.017 0.002-0.026 0.002-0.005-0-0.010-0-0.016-0-0.037 0-0.072 0.006-0.105 0.018l0.002-0.001c-0.022 0.008-0.040 0.017-0.057 0.028l0.001-0.001c-0.018 0.011-0.033 0.022-0.049 0.036-0.007 0.006-0.017 0.010-0.023 0.017l-2.741 3.002-2.525-2.483 1.653-1.644c0.056-0.056 0.091-0.134 0.091-0.22 0-0.172-0.139-0.311-0.311-0.311-0.001 0-0.001 0-0.002 0h0l-1.294 0.007 0.016-0.938 1.811 0.015c0.737 0.756 1.766 1.226 2.904 1.226 0.001 0 0.001 0 0.002 0h-0c0.255 0 0.504-0.027 0.746-0.071 0.023 0.019 0.046 0.037 0.075 0.049l1.406 0.56 0.089 0.442 0.104 0.517-1.752-0.249zM38.345 17.501l-0.182-0.909 0.844-0.63 0.552 0.733-1.213 0.806zM40.535 15.849l-0.489 0.458-0.543-0.721 0.485-0.372c0.091-0.070 0.205-0.098 0.317-0.083 0.113 0.016 0.212 0.075 0.28 0.166 0.051 0.068 0.082 0.155 0.082 0.248 0 0.12-0.051 0.228-0.132 0.304l-0 0z"></path>
<path fill="#212121" style="fill: var(--color4, #212121)" d="M34.601 17.484l-1.25-1.245c-0.056-0.056-0.134-0.091-0.219-0.091s-0.163 0.035-0.219 0.091v0l-1.25 1.245c-0.058 0.059-0.091 0.138-0.091 0.221s0.033 0.162 0.091 0.221l1.25 1.245c0.056 0.056 0.134 0.091 0.219 0.091s0.163-0.035 0.219-0.091v0l1.25-1.245c0.057-0.056 0.092-0.134 0.092-0.221s-0.035-0.164-0.092-0.221v0zM33.132 18.51l-0.809-0.805 0.809-0.806 0.809 0.805-0.809 0.805zM36.679 9.625l-0.15 0.604c0.041 0.010 1.014 0.263 1.014 1.253h0.622c0-1.177-0.972-1.73-1.486-1.858zM38.165 12.105h-0.622v0.622h0.622v-0.622z"></path>
</symbol>
<symbol id="icon-instagram" viewBox="0 0 32 32">
<path d="M31.968 9.408c-0.074-1.701-0.349-2.869-0.742-3.882-0.424-1.111-1.054-2.059-1.85-2.837l-0.001-0.001c-0.78-0.792-1.724-1.419-2.778-1.827l-0.054-0.018c-1.019-0.394-2.181-0.667-3.882-0.742-1.712-0.082-2.256-0.101-6.602-0.101-4.344 0-4.888 0.019-6.595 0.094-1.699 0.074-2.869 0.349-3.88 0.742-1.112 0.424-2.060 1.054-2.839 1.85l-0.001 0.001c-0.791 0.78-1.418 1.724-1.825 2.778l-0.018 0.054c-0.395 1.019-0.669 2.181-0.744 3.882-0.082 1.712-0.101 2.256-0.101 6.602 0 4.344 0.019 4.888 0.094 6.595 0.075 1.701 0.35 2.869 0.744 3.882 0.426 1.11 1.055 2.057 1.849 2.837l0.001 0.001c0.8 0.813 1.77 1.443 2.832 1.843 1.019 0.395 2.182 0.67 3.882 0.744 1.707 0.075 2.251 0.094 6.595 0.094 4.346 0 4.89-0.019 6.595-0.094 1.701-0.074 2.869-0.349 3.882-0.742 2.157-0.85 3.833-2.526 4.664-4.628l0.019-0.055c0.394-1.019 0.669-2.182 0.744-3.882 0.075-1.707 0.093-2.251 0.093-6.595s-0.006-4.888-0.080-6.595zM29.088 22.474c-0.070 1.563-0.333 2.406-0.55 2.97-0.552 1.399-1.64 2.486-3.004 3.024l-0.036 0.012c-0.56 0.219-1.411 0.482-2.968 0.55-1.688 0.075-2.194 0.094-6.464 0.094-4.269 0-4.782-0.019-6.464-0.094-1.563-0.069-2.406-0.331-2.97-0.55-0.721-0.269-1.334-0.676-1.836-1.192l-0.001-0.001c-0.517-0.503-0.924-1.117-1.184-1.803l-0.011-0.034c-0.218-0.563-0.48-1.413-0.549-2.97-0.075-1.688-0.094-2.195-0.094-6.464 0-4.27 0.019-4.784 0.094-6.464 0.069-1.563 0.331-2.406 0.549-2.97 0.269-0.722 0.678-1.337 1.198-1.837l0.002-0.002c0.504-0.517 1.119-0.923 1.806-1.182l0.034-0.011c0.56-0.219 1.411-0.48 2.968-0.55 1.688-0.074 2.195-0.093 6.464-0.093 4.275 0 4.782 0.019 6.464 0.093 1.563 0.069 2.406 0.331 2.97 0.55 0.693 0.256 1.325 0.662 1.837 1.194 0.531 0.52 0.938 1.144 1.195 1.84 0.218 0.56 0.48 1.411 0.549 2.968 0.075 1.688 0.094 2.194 0.094 6.464 0 4.269-0.019 4.768-0.094 6.458z"></path>
<path  d="M16.059 7.782c-4.539 0.002-8.218 3.682-8.219 8.221v0c0.091 4.471 3.737 8.060 8.221 8.060s8.13-3.589 8.221-8.052l0-0.009c-0.001-4.54-3.681-8.22-8.221-8.221h-0zM16.059 21.334c-2.945-0-5.332-2.388-5.332-5.333s2.388-5.333 5.333-5.333c0 0 0.001 0 0.001 0h-0c2.946 0 5.334 2.388 5.334 5.334s-2.388 5.334-5.334 5.334v0zM26.525 7.458c0 1.060-0.86 1.92-1.92 1.92s-1.92-0.86-1.92-1.92v0c0-1.060 0.86-1.92 1.92-1.92s1.92 0.86 1.92 1.92v0z"></path>
</symbol>
<symbol id="icon-twitter" viewBox="0 0 32 32">
<path d="M32 6.078c-1.1 0.493-2.376 0.857-3.713 1.028l-0.068 0.007c1.36-0.817 2.382-2.078 2.873-3.579l0.013-0.046c-1.197 0.722-2.591 1.273-4.076 1.573l-0.084 0.014c-1.2-1.279-2.9-2.076-4.787-2.076-3.622 0-6.558 2.936-6.558 6.558 0 0.001 0 0.003 0 0.004v-0c0 0.52 0.043 1.021 0.152 1.496-5.454-0.266-10.28-2.88-13.522-6.861-0.564 0.949-0.899 2.092-0.902 3.313v0.001c0 2.272 1.171 4.286 2.914 5.451-1.091-0.030-2.107-0.325-2.994-0.823l0.033 0.017v0.072c0.003 3.165 2.236 5.807 5.213 6.44l0.043 0.008c-0.499 0.136-1.071 0.215-1.662 0.215-0.020 0-0.041-0-0.061-0l0.003 0c-0.419 0-0.843-0.024-1.242-0.112 0.85 2.598 3.261 4.509 6.13 4.57-2.215 1.746-5.045 2.8-8.122 2.8-0.004 0-0.008 0-0.013 0h0.001c-0.018 0-0.040 0-0.062 0-0.531 0-1.055-0.034-1.569-0.099l0.061 0.006c2.826 1.846 6.287 2.944 10.004 2.944 0.021 0 0.042-0 0.063-0h-0.003c12.072 0 18.672-10 18.672-18.669 0-0.288-0.010-0.57-0.024-0.848 1.299-0.936 2.39-2.064 3.258-3.355l0.030-0.047z"></path>
</symbol>
<symbol id="icon-facebook" viewBox="0 0 32 32">
<path  d="M21.328 5.312h2.923v-5.088c-1.232-0.143-2.66-0.224-4.107-0.224-0.052 0-0.104 0-0.157 0l0.008-0c-4.213 0-7.099 2.65-7.099 7.52v4.48h-4.646v5.688h4.646v14.312h5.699v-14.31h4.459l0.709-5.688h-5.17v-3.922c0-1.643 0.443-2.768 2.734-2.768z"></path>
</symbol>
<symbol id="icon-linkedin" viewBox="0 0 32 32">
<path d="M31.992 32h0.008v-11.738c0-5.741-1.237-10.163-7.947-10.163-3.227 0-5.392 1.77-6.277 3.45h-0.093v-2.914h-6.365v21.363h6.627v-10.578c0-2.786 0.528-5.48 3.978-5.48 3.398 0 3.448 3.179 3.448 5.658v10.402h6.621zM0.528 10.635h6.635v21.365h-6.635v-21.365zM3.843 0c-2.123 0-3.843 1.721-3.843 3.843v0c0 2.12 1.722 3.878 3.843 3.878 2.12 0 3.842-1.757 3.842-3.878s-1.72-3.841-3.841-3.843h-0z"></path>
</symbol>
<symbol id="icon-Cliente-1" viewBox="0 0 67 32">
<path d="M27.654 8.331l2.769 2.621-5.139-0.003v12.716h13.432v-4.862l2.765 2.618v-13.090h-13.827zM38.594 18.495l-7.85-7.431h7.85v7.431zM36.157 21.805h-8.748v-8.553h0.618v7.973h8.13v0.579zM29.476 25.357l-0.323 0.666-0.323-0.666h-0.271l0.472 0.887v0.517h0.245v-0.517l0.471-0.887h-0.27zM29.882 26.762l0.114-0.327h0.544l0.115 0.327h0.255l-0.531-1.404h-0.219l-0.53 1.404h0.254zM30.267 25.656l0.203 0.582h-0.407l0.203-0.583zM31.554 26.204c-0.033 0.049-0.053 0.11-0.053 0.176 0 0.001 0 0.002 0 0.002v-0c0 0.119 0.041 0.215 0.124 0.288s0.195 0.11 0.333 0.11c0.139 0 0.259-0.038 0.359-0.113l0.079 0.094h0.272l-0.206-0.244c0.081-0.111 0.122-0.252 0.122-0.425h-0.204c0 0.095-0.020 0.181-0.058 0.258l-0.271-0.32 0.096-0.070c0.058-0.039 0.107-0.088 0.145-0.145l0.001-0.002c0.028-0.046 0.044-0.101 0.044-0.16 0-0.001 0-0.002 0-0.002v0c0-0.002 0-0.004 0-0.005 0-0.086-0.038-0.164-0.098-0.217l-0-0c-0.062-0.057-0.146-0.091-0.237-0.091-0.005 0-0.010 0-0.015 0l0.001-0c-0.113 0-0.203 0.032-0.27 0.096s-0.1 0.151-0.1 0.261c0 0.045 0.011 0.091 0.032 0.14 0.022 0.048 0.060 0.107 0.115 0.175-0.104 0.075-0.174 0.139-0.209 0.194zM32.188 26.515c-0.060 0.049-0.137 0.078-0.221 0.079h-0c-0.003 0-0.007 0-0.011 0-0.060 0-0.116-0.023-0.157-0.061l0 0c-0.039-0.038-0.063-0.091-0.063-0.15 0-0.003 0-0.006 0-0.008v0c0-0.075 0.039-0.142 0.116-0.201l0.030-0.021 0.307 0.362zM31.936 25.893c-0.066-0.082-0.1-0.149-0.1-0.203 0-0.047 0.014-0.086 0.041-0.117 0.025-0.029 0.062-0.047 0.103-0.047 0.002 0 0.004 0 0.006 0h-0c0.002-0 0.003-0 0.005-0 0.039 0 0.074 0.015 0.1 0.040l-0-0c0.028 0.026 0.041 0.057 0.041 0.094 0 0.001 0 0.003 0 0.005 0 0.052-0.023 0.099-0.059 0.131l-0 0-0.030 0.024-0.107 0.073zM34.222 26.656c0.096-0.084 0.152-0.201 0.166-0.351h-0.243c-0.013 0.1-0.043 0.172-0.092 0.215s-0.12 0.065-0.216 0.065c-0.105 0-0.184-0.040-0.239-0.12-0.054-0.080-0.081-0.196-0.081-0.348v-0.124c0.002-0.15 0.030-0.263 0.087-0.341s0.139-0.117 0.245-0.117c0.091 0 0.16 0.023 0.207 0.067s0.077 0.117 0.089 0.218h0.243c-0.016-0.154-0.070-0.273-0.165-0.357s-0.219-0.126-0.374-0.126c-0.115 0-0.217 0.028-0.305 0.082-0.088 0.056-0.157 0.136-0.2 0.23l-0.001 0.003c-0.045 0.098-0.071 0.213-0.071 0.334 0 0.006 0 0.012 0 0.017v-0.001 0.131c0.002 0.129 0.026 0.243 0.072 0.341s0.112 0.173 0.197 0.226c0.086 0.053 0.184 0.079 0.296 0.079 0.16 0 0.288-0.041 0.385-0.125zM35.656 26.459c0.047-0.104 0.072-0.225 0.072-0.363v-0.078c0-0.004 0-0.010 0-0.015 0-0.125-0.027-0.243-0.075-0.35l0.002 0.005c-0.045-0.099-0.115-0.18-0.203-0.236l-0.002-0.001c-0.089-0.055-0.19-0.083-0.304-0.083s-0.216 0.028-0.305 0.084c-0.088 0.055-0.156 0.135-0.205 0.24-0.046 0.102-0.072 0.22-0.072 0.345 0 0.006 0 0.012 0 0.018v-0.001 0.079c0.001 0.134 0.025 0.253 0.073 0.356s0.118 0.183 0.207 0.239c0.089 0.055 0.191 0.083 0.305 0.083 0.115 0 0.217-0.028 0.305-0.083s0.157-0.136 0.204-0.239zM35.395 25.665c0.059 0.083 0.089 0.203 0.089 0.358v0.073c0 0.158-0.029 0.279-0.088 0.361s-0.141 0.124-0.249 0.124c-0.003 0-0.007 0-0.010 0-0.099 0-0.187-0.050-0.24-0.126l-0.001-0.001c-0.060-0.084-0.090-0.203-0.090-0.358v-0.081c0.001-0.151 0.032-0.268 0.090-0.35 0.053-0.076 0.139-0.125 0.237-0.125 0.004 0 0.008 0 0.011 0l-0.001-0c0.108 0 0.191 0.041 0.25 0.124z"></path>
</symbol>
<symbol id="icon-Cliente-2" viewBox="0 0 67 32">
<path d="M32.44 7.91h-0.054c-0.069-0.004-0.156-0.007-0.243-0.009l-0.006-0h-0.18c-0.157 0-0.317 0.004-0.476 0.012-0.005-0-0.012-0.001-0.018-0.001s-0.013 0-0.019 0.001l0.001-0c-1.525 0.089-2.941 0.47-4.221 1.089l0.067-0.029-0.171 0.082v8.747l0.4-0.136c0.351-0.12 0.725-0.229 1.111-0.329 0.956-0.256 2.055-0.41 3.189-0.425l0.009-0v1.149c-0.143 0.001-0.282 0.005-0.421 0.012h-0.033c-0.898 0.050-1.739 0.185-2.549 0.398l0.089-0.020c-1.113 0.283-2.089 0.674-2.996 1.175l0.064-0.033v-11.219c0.885-0.526 1.91-0.955 2.994-1.233l0.081-0.018c0.869-0.234 1.867-0.37 2.896-0.374h0.171c0.202 0.005 0.399 0.014 0.584 0.028 0.487 0.034 0.97 0.111 1.444 0.23v1.131c-0.412-0.101-0.9-0.177-1.4-0.212l-0.028-0.002c-0.098-0.008-0.195-0.017-0.286-0.017zM34.431 9.066c0.251 0.019 0.51 0.028 0.774 0.028 1.084-0.004 2.134-0.147 3.134-0.411l-0.087 0.019c1.113-0.284 2.088-0.675 2.995-1.176l-0.065 0.033v11.018c-0.886 0.526-1.91 0.955-2.994 1.233l-0.082 0.018c-0.869 0.233-1.867 0.369-2.896 0.373h-0.003c-0.021 0-0.045 0-0.070 0-0.756 0-1.49-0.095-2.19-0.273l0.061 0.013v-11.089c0.17 0.039 0.345 0.075 0.523 0.105 0.292 0.049 0.6 0.085 0.9 0.107zM40.038 9.151l-0.4 0.135c-0.367 0.124-0.739 0.234-1.111 0.333-0.995 0.266-2.139 0.422-3.318 0.426h-0.003c-0.261 0-0.501-0.007-0.732-0.022l-0.319-0.021v8.998l0.274 0.024c0.254 0.023 0.516 0.034 0.779 0.034 0.931-0.004 1.832-0.127 2.689-0.355l-0.074 0.017c0.784-0.199 1.464-0.451 2.109-0.763l-0.065 0.029 0.171-0.082v-8.75z"></path>
<path d="M26.76 23.427c-0.107-0.111-0.258-0.18-0.424-0.18-0.007 0-0.014 0-0.021 0l0.001-0c-0.003-0-0.006-0-0.009-0-0.089 0-0.175 0.018-0.253 0.050l0.004-0.002c-0.152 0.061-0.27 0.18-0.327 0.329l-0.001 0.004c-0.032 0.079-0.047 0.163-0.046 0.248v1.499c-0 0.007-0 0.016-0 0.024 0 0.103 0.022 0.2 0.061 0.288l-0.002-0.005c0.036 0.077 0.087 0.145 0.15 0.201 0.060 0.050 0.13 0.087 0.205 0.107 0.073 0.020 0.149 0.031 0.224 0.031 0.083 0.001 0.166-0.017 0.242-0.052 0.225-0.1 0.379-0.321 0.379-0.579v-0.168h-0.392v0.134c0 0.003 0 0.006 0 0.009 0 0.045-0.008 0.087-0.024 0.127l0.001-0.002c-0.013 0.033-0.033 0.061-0.057 0.084l-0 0c-0.045 0.035-0.102 0.056-0.164 0.057h-0c-0.007 0.001-0.015 0.001-0.023 0.001-0.066 0-0.124-0.032-0.161-0.081l-0-0.001c-0.033-0.053-0.052-0.117-0.052-0.186 0-0.005 0-0.011 0-0.016l-0 0.001v-1.398c-0.002-0.077 0.014-0.154 0.048-0.224 0.036-0.056 0.098-0.092 0.168-0.092 0.008 0 0.016 0 0.024 0.001l-0.001-0c0.002-0 0.005-0 0.007-0 0.069 0 0.129 0.033 0.167 0.084l0 0.001c0.041 0.053 0.065 0.12 0.065 0.193 0 0.003-0 0.006-0 0.009v-0 0.13h0.388v-0.153c0-0.002 0-0.004 0-0.007 0-0.092-0.018-0.18-0.049-0.26l0.002 0.005c-0.031-0.082-0.075-0.152-0.131-0.211l0 0zM29.088 23.41c-0.119-0.102-0.275-0.164-0.445-0.165h-0c-0.080 0-0.159 0.015-0.234 0.042-0.162 0.058-0.289 0.177-0.357 0.329l-0.002 0.004c-0.040 0.091-0.059 0.19-0.057 0.29v1.437c-0.002 0.101 0.017 0.201 0.057 0.294 0.036 0.077 0.087 0.146 0.152 0.201 0.060 0.055 0.13 0.098 0.207 0.126 0.069 0.026 0.15 0.042 0.233 0.042 0.171 0 0.328-0.064 0.447-0.169l-0.001 0.001c0.062-0.056 0.113-0.125 0.148-0.201 0.040-0.092 0.060-0.193 0.057-0.294v-1.438c0-0.004 0-0.009 0-0.013 0-0.1-0.021-0.195-0.059-0.281l0.002 0.005c-0.037-0.082-0.086-0.152-0.147-0.21l-0-0zM28.905 25.348c0.001 0.007 0.001 0.014 0.001 0.022 0 0.073-0.030 0.139-0.079 0.186l-0 0c-0.049 0.042-0.114 0.067-0.184 0.067s-0.135-0.025-0.185-0.068l0 0c-0.049-0.047-0.079-0.112-0.079-0.185 0-0.008 0-0.016 0.001-0.024l-0 0.001v-1.438c-0.001-0.007-0.001-0.014-0.001-0.022 0-0.073 0.030-0.139 0.079-0.186l0-0c0.049-0.042 0.114-0.067 0.184-0.067s0.135 0.025 0.185 0.068l-0-0c0.049 0.047 0.079 0.113 0.079 0.186 0 0.008-0 0.016-0.001 0.023l0-0.001v1.438zM32.145 25.99v-2.721h-0.377l-0.495 1.44h-0.007l-0.499-1.44h-0.373v2.721h0.389v-1.655h0.007l0.381 1.17h0.194l0.384-1.17h0.007v1.655h0.389zM34.354 23.459c-0.060-0.067-0.136-0.118-0.22-0.149-0.079-0.027-0.171-0.042-0.266-0.042-0.006 0-0.011 0-0.017 0h-0.577v2.721h0.388v-1.063h0.2c0.121 0.006 0.241-0.020 0.35-0.074 0.089-0.050 0.161-0.121 0.212-0.206l0.001-0.003c0.045-0.072 0.075-0.153 0.089-0.237 0.015-0.102 0.022-0.205 0.021-0.309 0.004-0.13-0.009-0.261-0.038-0.389-0.027-0.098-0.077-0.182-0.143-0.25l0 0zM34.154 24.289c-0.002 0.052-0.015 0.101-0.037 0.144l0.001-0.002c-0.023 0.042-0.057 0.075-0.099 0.095l-0.001 0.001c-0.048 0.022-0.104 0.035-0.163 0.035-0.007 0-0.014-0-0.021-0.001l0.001 0h-0.177v-0.925h0.2c0.006-0 0.012-0 0.019-0 0.057 0 0.11 0.013 0.159 0.035l-0.002-0.001c0.040 0.023 0.071 0.058 0.090 0.099l0.001 0.001c0.021 0.047 0.033 0.099 0.034 0.151v0.181c0 0.063 0.004 0.129 0 0.187h-0.004zM36.191 23.268h-0.318l-0.6 2.721h0.388l0.114-0.585h0.529l0.114 0.585h0.388l-0.614-2.721zM35.833 25.034l0.191-0.986h0.007l0.19 0.986h-0.388zM38.696 24.908h-0.007l-0.585-1.64h-0.373v2.721h0.388v-1.636h0.008l0.593 1.636h0.365v-2.721h-0.388v1.639zM41.066 23.268l-0.312 1.082h-0.008l-0.312-1.082h-0.411l0.533 1.571v1.15h0.388v-1.15l0.533-1.571h-0.41z"></path>
</symbol>
<symbol id="icon-Cliente-3" viewBox="0 0 67 32">
<path d="M27.025 24.963c0.013 0 0.025 0.005 0.034 0.013l-0-0 0.086 0.082c-0.067 0.067-0.15 0.12-0.243 0.156-0.109 0.040-0.226 0.059-0.344 0.056-0.111 0.002-0.22-0.016-0.323-0.053-0.094-0.034-0.175-0.085-0.244-0.148l0 0c-0.066-0.063-0.12-0.139-0.156-0.224l-0.002-0.004c-0.035-0.084-0.055-0.182-0.055-0.285 0-0.003 0-0.006 0-0.009v0c-0-0.004-0-0.010-0-0.015 0-0.201 0.087-0.382 0.226-0.507l0.001-0.001c0.073-0.064 0.162-0.115 0.258-0.149 0.106-0.036 0.219-0.054 0.333-0.053 0.006-0 0.013-0 0.021-0 0.103 0 0.202 0.017 0.295 0.050l-0.006-0.002c0.085 0.032 0.164 0.077 0.232 0.132l-0.072 0.088c-0.005 0.006-0.011 0.012-0.018 0.016l-0 0c-0.007 0.004-0.016 0.007-0.025 0.007-0.001 0-0.003-0-0.004-0h0c-0.012-0-0.023-0.004-0.032-0.009l0 0-0.038-0.024-0.054-0.030c-0.049-0.024-0.106-0.042-0.166-0.052l-0.003-0c-0.036-0.006-0.077-0.010-0.119-0.010-0.003 0-0.006 0-0.010 0h0c-0.002-0-0.005-0-0.008-0-0.083 0-0.162 0.015-0.236 0.041l0.005-0.002c-0.071 0.025-0.135 0.062-0.187 0.111-0.054 0.051-0.095 0.111-0.122 0.176s-0.044 0.143-0.044 0.224c0 0.003 0 0.006 0 0.009v-0c-0.002 0.080 0.013 0.16 0.044 0.236 0.029 0.068 0.069 0.127 0.12 0.175l0 0c0.049 0.047 0.111 0.085 0.179 0.109 0.070 0.025 0.146 0.038 0.222 0.038 0.044 0 0.088-0.002 0.132-0.008 0.11-0.011 0.207-0.055 0.285-0.122l-0.001 0.001c0.011-0.009 0.025-0.015 0.041-0.015h0zM29.513 24.549c0.002 0.1-0.018 0.198-0.058 0.292-0.038 0.089-0.093 0.165-0.161 0.225l-0.001 0.001c-0.072 0.064-0.156 0.114-0.25 0.147l-0.005 0.002c-0.098 0.033-0.21 0.052-0.328 0.052s-0.23-0.019-0.335-0.055l0.007 0.002c-0.098-0.035-0.182-0.085-0.254-0.149l0.001 0.001c-0.069-0.062-0.124-0.139-0.162-0.224l-0.002-0.004c-0.037-0.086-0.058-0.186-0.058-0.292s0.021-0.205 0.060-0.297l-0.002 0.005c0.037-0.085 0.092-0.163 0.164-0.229 0.072-0.063 0.158-0.111 0.253-0.143 0.098-0.034 0.21-0.053 0.328-0.053s0.23 0.020 0.335 0.056l-0.007-0.002c0.096 0.034 0.182 0.085 0.254 0.149 0.071 0.065 0.126 0.142 0.162 0.226 0.040 0.094 0.060 0.193 0.058 0.293zM29.287 24.549c0-0.003 0-0.008 0-0.012 0-0.080-0.015-0.156-0.043-0.226l0.001 0.004c-0.052-0.135-0.16-0.239-0.294-0.285l-0.003-0.001c-0.071-0.024-0.153-0.038-0.238-0.038s-0.167 0.014-0.243 0.040l0.005-0.002c-0.071 0.025-0.131 0.063-0.182 0.111l0-0c-0.050 0.048-0.090 0.106-0.115 0.172l-0.001 0.003c-0.026 0.070-0.041 0.15-0.041 0.234s0.015 0.164 0.043 0.239l-0.002-0.005c0.052 0.135 0.16 0.238 0.295 0.283l0.003 0.001c0.153 0.050 0.322 0.050 0.476 0 0.069-0.024 0.132-0.062 0.182-0.109 0.052-0.051 0.091-0.111 0.115-0.175 0.029-0.075 0.043-0.154 0.041-0.234zM31.21 24.795l0.023 0.052c0.008-0.019 0.016-0.036 0.024-0.052 0.008-0.018 0.018-0.035 0.028-0.051l0.55-0.87c0.011-0.015 0.021-0.024 0.032-0.027s0.024-0.005 0.038-0.005c0.003 0 0.005 0 0.008 0h0.162v1.414h-0.193v-1.084c-0-0.007-0.001-0.016-0.001-0.024s0-0.017 0.001-0.026l-0 0.001-0.554 0.882c-0.008 0.014-0.019 0.025-0.032 0.032l-0 0c-0.013 0.007-0.029 0.012-0.046 0.012-0 0-0.001 0-0.001 0h-0.031c-0 0-0.001 0-0.001 0-0.017 0-0.033-0.004-0.047-0.012l0 0c-0.014-0.007-0.025-0.018-0.032-0.032l-0-0-0.57-0.887v1.135h-0.186v-1.411h0.162c0.002-0 0.005-0 0.007-0 0.014 0 0.027 0.002 0.039 0.005l-0.001-0c0.013 0.006 0.024 0.015 0.030 0.027l0.562 0.87c0.011 0.016 0.021 0.033 0.028 0.051zM33.282 24.725v0.529h-0.215v-1.412h0.48c0.091-0.002 0.181 0.009 0.268 0.031 0.070 0.017 0.134 0.047 0.19 0.088 0.046 0.036 0.082 0.083 0.107 0.136l0.001 0.002c0.026 0.058 0.038 0.119 0.037 0.181 0 0.003 0 0.006 0 0.009 0 0.128-0.061 0.241-0.155 0.312l-0.001 0.001c-0.055 0.042-0.12 0.074-0.191 0.094-0.072 0.021-0.156 0.033-0.242 0.033-0.006 0-0.013-0-0.019-0h0.001l-0.261-0.004zM33.282 24.573h0.261c0.057 0.001 0.113-0.007 0.167-0.021 0.046-0.014 0.086-0.034 0.121-0.061l-0.001 0.001c0.061-0.050 0.099-0.125 0.099-0.209 0-0.001 0-0.002-0-0.003v0c0-0.005 0.001-0.010 0.001-0.015 0-0.036-0.008-0.070-0.022-0.101l0.001 0.001c-0.018-0.038-0.043-0.071-0.075-0.096l-0.001-0c-0.072-0.048-0.161-0.077-0.256-0.077-0.012 0-0.024 0-0.036 0.001l0.002-0h-0.261v0.582zM36.177 25.256h-0.17c-0.001 0-0.002 0-0.003 0-0.017 0-0.032-0.005-0.045-0.014l0 0c-0.012-0.008-0.022-0.019-0.028-0.032l-0-0-0.146-0.341h-0.736l-0.152 0.341c-0.013 0.027-0.041 0.046-0.073 0.046-0.001 0-0.002 0-0.002-0h-0.171l0.646-1.414h0.224l0.655 1.414zM35.11 24.731h0.608l-0.257-0.575c-0.019-0.043-0.036-0.088-0.048-0.133l-0.025 0.074c-0.008 0.023-0.016 0.043-0.024 0.060l-0.254 0.574zM37.108 23.849c0.013 0.006 0.024 0.015 0.032 0.025l0.942 1.066v-1.098h0.193v1.414h-0.107c-0.001 0-0.002 0-0.002 0-0.015 0-0.029-0.003-0.042-0.009l0.001 0c-0.013-0.007-0.025-0.016-0.034-0.026l-0-0-0.941-1.065c0.001 0.007 0.001 0.016 0.001 0.024s-0 0.017-0.001 0.025l0-0.001v1.051h-0.193v-1.414h0.114c0 0 0.001 0 0.001 0 0.014 0 0.026 0.003 0.038 0.007l-0.001-0zM39.863 24.694v0.561h-0.215v-0.561l-0.596-0.852h0.193c0.001-0 0.003-0 0.005-0 0.015 0 0.030 0.004 0.042 0.012l-0-0c0.012 0.009 0.022 0.020 0.029 0.032l0.373 0.55c0.015 0.024 0.028 0.045 0.039 0.066s0.020 0.040 0.027 0.060l0.028-0.060c0.012-0.025 0.024-0.046 0.037-0.066l-0.001 0.002 0.367-0.553c0.008-0.012 0.017-0.021 0.028-0.030l0-0c0.012-0.009 0.027-0.014 0.043-0.014 0.001 0 0.003 0 0.004 0h0.195l-0.597 0.855zM31.104 21.469c0.094 0.010 0.189 0.019 0.284 0.026 1.454-0.565 2.683-1.489 3.535-2.658s1.288-2.53 1.255-3.913l-1.602-1.391c0.326 1.472 0.173 2.995-0.44 4.396s-1.663 2.627-3.033 3.54z"></path>
<path d="M30.532 21.404l0.043 0.007c1.463-0.909 2.579-2.179 3.202-3.645s0.727-3.061 0.296-4.579l-2.281-1.982c0.922 1.629 1.294 3.453 1.071 5.258s-1.031 3.518-2.331 4.94zM38.269 16.559c-0.388 1.519-1.329 2.89-2.684 3.908-0.37 0.282-0.788 0.546-1.228 0.773l-0.048 0.022c1.104-0.282 2.118-0.78 2.965-1.456s1.504-1.513 1.92-2.444l-0.925-0.803z"></path>
<path d="M37.906 16.335l-1.318-1.145c-0.025 1.305-0.452 2.58-1.237 3.693s-1.898 2.023-3.224 2.636h0.006c0.295 0 0.591-0.016 0.884-0.046 1.24-0.44 2.334-1.139 3.187-2.036s1.436-1.963 1.7-3.103zM30.722 10.37l-1.572-1.367c-1.405 0.472-2.613 1.301-3.467 2.379s-1.312 2.355-1.317 3.664c0.005 1.446 0.565 2.849 1.592 3.987s2.46 1.946 4.075 2.297c1.441-1.526 2.285-3.411 2.409-5.382s-0.479-3.925-1.721-5.578zM41.537 16.124c-0.006-1.715-0.792-3.359-2.189-4.572s-3.288-1.897-5.263-1.901c-0.913-0.001-1.817 0.145-2.668 0.431l9.622 8.359c0.314-0.681 0.497-1.477 0.498-2.317v-0z"></path>
</symbol>
<symbol id="icon-Cliente-5" viewBox="0 0 67 32">
<path d="M23.213 23.238c0.096 0.109 0.147 0.246 0.145 0.386 0 0.009 0.001 0.019 0.001 0.029 0 0.086-0.019 0.168-0.054 0.241l0.001-0.003c-0.042 0.088-0.1 0.162-0.172 0.22l-0.001 0.001c-0.164 0.113-0.366 0.18-0.584 0.18-0.024 0-0.048-0.001-0.071-0.002l0.003 0h-1.147v-2.445h1.124c0.020-0.001 0.043-0.002 0.066-0.002 0.207 0 0.399 0.061 0.56 0.167l-0.004-0.002c0.073 0.056 0.13 0.126 0.168 0.205s0.055 0.166 0.050 0.253c0.006 0.134-0.040 0.267-0.13 0.374-0.087 0.097-0.208 0.164-0.342 0.191 0.152 0.025 0.29 0.1 0.387 0.209zM21.867 22.869h0.48c0.109 0.007 0.217-0.022 0.305-0.081 0.035-0.029 0.063-0.065 0.081-0.107l0.001-0.002c0.014-0.032 0.022-0.068 0.022-0.107 0-0.008-0-0.016-0.001-0.024l0 0.001c0-0.006 0.001-0.013 0.001-0.021 0-0.040-0.008-0.077-0.023-0.111l0.001 0.002c-0.019-0.043-0.046-0.080-0.080-0.109l-0-0c-0.078-0.053-0.173-0.084-0.276-0.084-0.013 0-0.027 0.001-0.040 0.002l0.002-0h-0.473v0.642zM22.7 23.807c0.037-0.030 0.067-0.067 0.088-0.11l0.001-0.002c0.016-0.034 0.026-0.075 0.026-0.117 0-0.007-0-0.014-0.001-0.020l0 0.001c0-0.005 0.001-0.012 0.001-0.018 0-0.044-0.010-0.085-0.027-0.122l0.001 0.002c-0.022-0.045-0.052-0.083-0.089-0.112l-0.001-0c-0.083-0.056-0.185-0.089-0.294-0.089-0.011 0-0.023 0-0.034 0.001l0.002-0h-0.504v0.673h0.51c0.115 0.006 0.228-0.024 0.322-0.085zM25.509 24.29l-0.625-0.956h-0.235v0.956h-0.538v-2.446h1.018c0.022-0.002 0.047-0.002 0.072-0.002 0.24 0 0.461 0.079 0.639 0.213l-0.003-0.002c0.142 0.133 0.228 0.307 0.242 0.493 0.001 0.015 0.002 0.033 0.002 0.051 0 0.178-0.064 0.342-0.169 0.469l0.001-0.001c-0.126 0.13-0.294 0.22-0.481 0.248l-0.005 0.001 0.666 0.977h-0.585zM24.649 23h0.44c0.305 0 0.458-0.123 0.458-0.37 0-0.006 0.001-0.013 0.001-0.020 0-0.046-0.009-0.090-0.026-0.131l0.001 0.002c-0.021-0.050-0.050-0.092-0.087-0.126l-0-0c-0.084-0.063-0.189-0.101-0.303-0.101-0.015 0-0.030 0.001-0.045 0.002l0.002-0h-0.445l0.005 0.744zM28.448 23.798h-1.071l-0.189 0.492h-0.564l0.984-2.419h0.61l0.98 2.419h-0.563l-0.185-0.492zM28.305 23.427l-0.392-1.032-0.392 1.032h0.783zM32.127 24.29h-0.533l-1.197-1.663v1.663h-0.533v-2.446h0.533l1.197 1.673v-1.673h0.533v2.446zM35.174 23.704c-0.111 0.184-0.279 0.335-0.483 0.431-0.207 0.098-0.451 0.155-0.707 0.155-0.015 0-0.031-0-0.046-0.001l0.002 0h-0.95v-2.446h0.95c0.013-0 0.028-0.001 0.044-0.001 0.256 0 0.499 0.056 0.718 0.155l-0.011-0.004c0.204 0.095 0.373 0.243 0.483 0.427 0.11 0.199 0.167 0.419 0.167 0.642s-0.057 0.442-0.167 0.642zM34.563 23.646c0.145-0.152 0.234-0.357 0.236-0.584v-0c0-0.214-0.084-0.421-0.236-0.584-0.165-0.131-0.377-0.21-0.607-0.21-0.022 0-0.043 0.001-0.064 0.002l0.003-0h-0.371v1.583h0.371c0.018 0.001 0.040 0.002 0.061 0.002 0.23 0 0.442-0.079 0.609-0.211l-0.002 0.002zM28.783 8.239s6.889 2.381 6.743 5.827v5.83s-6.884-2.383-6.741-5.829l-0.002-5.828zM41.663 18.53c1.301-0.82 2.806-1.327 4.377-1.477v-1.824c-1.81 0.639-3.346 1.797-4.377 3.302z"></path>
<path d="M40.882 19.080c1.065-1.963 2.911-3.479 5.159-4.233v-5.257s-9.811 3.392-9.604 8.299v8.299s0.437-0.152 1.125-0.436c0-0.265 0-0.533 0.032-0.802 0.203-2.278 1.385-4.389 3.288-5.869z"></path>
<path d="M39.949 22.163c0.051-0.576 0.166-1.145 0.343-1.699-1.185 1.278-1.903 2.864-2.052 4.535-0.015 0.158-0.023 0.315-0.026 0.478 0.818-0.358 1.438-0.663 2.045-0.988l-0.158 0.077c-0.174-0.791-0.225-1.6-0.153-2.403zM40.339 22.193c-0.019 0.201-0.030 0.436-0.030 0.672 0 0.532 0.055 1.052 0.16 1.553l-0.009-0.049c2.681-1.469 5.692-3.738 5.576-6.48v-0.239c-1.915 0.196-3.707 0.963-5.1 2.182-0.307 0.691-0.52 1.491-0.596 2.332l-0.002 0.029z"></path>
</symbol>
<symbol id="icon-Cliente-6" viewBox="0 0 67 32">
<path d="M33.748 16.393c-0.151-0.194-0.241-0.441-0.241-0.71 0-0.027 0.001-0.053 0.003-0.079l-0 0.004v-1.139c0-0.349 0.079-0.614 0.238-0.796s0.43-0.272 0.816-0.271c0.362 0 0.62 0.077 0.772 0.232 0.166 0.197 0.247 0.438 0.228 0.681v0.268h-0.648v-0.271c0.002-0.088-0.004-0.177-0.019-0.265-0.011-0.064-0.045-0.119-0.092-0.157l-0.001-0c-0.058-0.039-0.13-0.063-0.207-0.063-0.010 0-0.019 0-0.029 0.001l0.001-0c-0.008-0.001-0.018-0.001-0.028-0.001-0.082 0-0.158 0.025-0.221 0.067l0.001-0.001c-0.054 0.043-0.092 0.103-0.107 0.172l-0 0.002c-0.016 0.078-0.026 0.168-0.026 0.26 0 0.008 0 0.015 0 0.023v-0.001 1.383c-0.010 0.133 0.019 0.267 0.083 0.388 0.034 0.042 0.077 0.074 0.127 0.093l0.002 0.001c0.053 0.021 0.111 0.028 0.167 0.022 0.008 0.001 0.018 0.001 0.027 0.001 0.076 0 0.146-0.024 0.203-0.064l-0.001 0.001c0.050-0.042 0.085-0.1 0.097-0.166l0-0.002c0.013-0.075 0.020-0.161 0.020-0.249 0-0.010-0-0.020-0-0.030l0 0.001v-0.28h0.648v0.256c0.001 0.020 0.002 0.044 0.002 0.068 0 0.246-0.085 0.472-0.228 0.651l0.002-0.002c-0.149 0.169-0.403 0.254-0.776 0.254s-0.655-0.090-0.815-0.278zM36.447 16.405c-0.164-0.178-0.246-0.436-0.246-0.777v-1.198c0-0.339 0.082-0.595 0.246-0.768s0.437-0.26 0.821-0.26c0.381 0 0.653 0.087 0.817 0.26 0.164 0.174 0.247 0.43 0.247 0.768v1.198c0 0.339-0.083 0.598-0.25 0.777s-0.437 0.267-0.815 0.267-0.656-0.090-0.822-0.266zM37.57 16.117c0.059-0.111 0.085-0.233 0.078-0.354v-1.467c0.001-0.012 0.001-0.026 0.001-0.040 0-0.113-0.029-0.219-0.079-0.312l0.002 0.003c-0.034-0.042-0.079-0.075-0.13-0.095l-0.002-0.001c-0.038-0.015-0.081-0.023-0.127-0.023-0.016 0-0.031 0.001-0.046 0.003l0.002-0c-0.013-0.002-0.028-0.003-0.044-0.003-0.046 0-0.090 0.008-0.13 0.024l0.002-0.001c-0.054 0.020-0.099 0.053-0.133 0.095l-0 0.001c-0.059 0.108-0.086 0.228-0.078 0.348v1.474c-0.008 0.122 0.019 0.244 0.078 0.355 0.038 0.037 0.084 0.067 0.137 0.088 0.049 0.020 0.107 0.031 0.167 0.031s0.117-0.012 0.17-0.033l-0.003 0.001c0.053-0.021 0.099-0.051 0.137-0.088l-0 0v-0.007zM39.113 13.436h0.698l0.525 2.211 0.537-2.21h0.679l0.069 3.191h-0.502l-0.054-2.217-0.518 2.217h-0.403l-0.537-2.226-0.050 2.226h-0.507l0.063-3.191zM42.402 13.436h1.087c0.626 0 0.939 0.302 0.939 0.906 0 0.578-0.33 0.868-0.989 0.867h-0.37v1.418h-0.671l0.004-3.191zM43.331 14.8c0.066 0.008 0.134 0.002 0.198-0.015s0.122-0.046 0.171-0.085c0.077-0.108 0.111-0.234 0.097-0.36 0-0.010 0.001-0.023 0.001-0.035 0-0.091-0.012-0.178-0.035-0.262l0.002 0.007c-0.010-0.034-0.027-0.063-0.050-0.088l0 0c-0.023-0.026-0.051-0.048-0.083-0.063l-0.002-0.001c-0.078-0.033-0.169-0.052-0.264-0.052-0.012 0-0.025 0-0.037 0.001l0.002-0h-0.26v0.954h0.26zM45.396 13.436h0.721l0.74 3.191h-0.626l-0.146-0.736h-0.643l-0.151 0.736h-0.634l0.739-3.191zM46.012 15.522l-0.251-1.339-0.251 1.339h0.502zM47.454 13.436h0.47l0.899 1.82v-1.82h0.557v3.191h-0.447l-0.905-1.9v1.9h-0.576l0.001-3.191zM50.684 15.411l-0.747-1.97h0.63l0.456 1.265 0.428-1.265h0.616l-0.738 1.97v1.217h-0.644v-1.217zM34.784 18.022v0.167h-0.548v1.297h-0.23v-1.297h-0.55v-0.167h1.327zM36.501 19.486h-0.177c-0.001 0-0.003 0-0.005 0-0.017 0-0.032-0.005-0.045-0.014l0 0c-0.013-0.008-0.023-0.020-0.029-0.033l-0-0-0.158-0.348h-0.76l-0.158 0.348c-0.005 0.016-0.014 0.029-0.024 0.039l-0 0c-0.013 0.009-0.029 0.014-0.046 0.014-0.001 0-0.003-0-0.004-0h-0.177l0.671-1.463h0.234l0.679 1.458zM35.39 18.942h0.633l-0.269-0.596c-0.017-0.037-0.034-0.083-0.047-0.13l-0.002-0.008c-0.009 0.028-0.017 0.055-0.025 0.078l-0.025 0.061-0.265 0.595zM37.658 19.342c0.042 0.002 0.084 0.002 0.126 0 0.036-0.004 0.072-0.009 0.107-0.018 0.033-0.007 0.065-0.016 0.097-0.026 0.030-0.011 0.059-0.023 0.090-0.036v-0.329h-0.268c-0.001 0-0.001 0-0.002 0-0.013 0-0.025-0.004-0.034-0.012l0 0c-0.004-0.003-0.008-0.007-0.010-0.012l-0-0c-0.002-0.004-0.003-0.008-0.003-0.013 0-0 0-0.001 0-0.001v0-0.113h0.521v0.561c-0.081 0.051-0.176 0.092-0.276 0.118l-0.007 0.002c-0.055 0.014-0.111 0.024-0.168 0.030s-0.125 0.009-0.192 0.009c-0.001 0-0.003 0-0.004 0h0c-0.002 0-0.005 0-0.008 0-0.118 0-0.232-0.020-0.337-0.057l0.007 0.002c-0.103-0.036-0.193-0.088-0.27-0.154l0.001 0.001c-0.072-0.064-0.13-0.141-0.171-0.228l-0.002-0.004c-0.039-0.087-0.062-0.188-0.062-0.294 0-0.003 0-0.007 0-0.010v0c-0-0.003-0-0.006-0-0.009 0-0.107 0.022-0.209 0.062-0.302l-0.002 0.005c0.038-0.087 0.098-0.166 0.173-0.232 0.077-0.066 0.168-0.117 0.269-0.152 0.115-0.038 0.237-0.056 0.359-0.055 0.062 0 0.125 0.004 0.186 0.013 0.055 0.008 0.108 0.020 0.16 0.037 0.047 0.015 0.092 0.035 0.134 0.058 0.041 0.023 0.080 0.048 0.117 0.076l-0.064 0.090c-0.005 0.008-0.013 0.015-0.021 0.020l-0 0c-0.009 0.005-0.020 0.008-0.031 0.008h-0c-0.015-0-0.030-0.005-0.042-0.012l0 0c-0.027-0.013-0.049-0.024-0.070-0.037l0.004 0.002c-0.025-0.014-0.055-0.027-0.086-0.038l-0.004-0.001c-0.034-0.012-0.076-0.024-0.118-0.032l-0.005-0.001c-0.048-0.008-0.104-0.013-0.161-0.013-0.003 0-0.006 0-0.009 0h0c-0.002-0-0.005-0-0.008-0-0.090 0-0.176 0.015-0.257 0.042l0.006-0.002c-0.075 0.026-0.142 0.065-0.198 0.116-0.053 0.050-0.095 0.11-0.123 0.178l-0.001 0.003c-0.028 0.072-0.045 0.156-0.045 0.244s0.017 0.172 0.047 0.249l-0.002-0.005c0.029 0.069 0.075 0.132 0.134 0.184 0.055 0.050 0.122 0.090 0.196 0.116 0.086 0.025 0.176 0.035 0.266 0.029zM39.797 19.319h0.733v0.167h-0.957v-1.464h0.23l-0.006 1.297zM41.292 19.486h-0.23v-1.464h0.23v1.464zM42.146 18.029c0.014 0.007 0.026 0.016 0.035 0.027l0 0 0.981 1.103c-0.001-0.008-0.001-0.017-0.001-0.026s0-0.018 0.001-0.027l-0 0.001v-1.090h0.2v1.47h-0.115c-0.002 0-0.005 0-0.007 0-0.015 0-0.030-0.003-0.043-0.009l0.001 0c-0.014-0.007-0.026-0.017-0.036-0.028l-0-0-0.98-1.102v1.138h-0.192v-1.464h0.119c0.013 0 0.026 0.003 0.038 0.007zM45.051 18.022v0.161h-0.813v0.483h0.659v0.155h-0.659v0.499h0.813v0.161h-1.049v-1.46h1.049zM21.002 8.985l10.191 2.498v8.754l-10.191-2.497v-8.756zM20.348 8.239v9.926l11.496 2.819v-9.925l-11.496-2.82z"></path>
<path d="M26.51 25.592l-11.498-2.822v-9.925l11.498 2.82v9.926z"></path>
<path d="M20.539 8.872l10.057 2.467-4.277 3.694-10.059-2.468 4.279-3.693zM20.348 8.239l-5.336 4.606 11.498 2.821 5.335-4.607-11.496-2.82zM27.157 25.033l4.688-4.049-4.688-1.15v5.199z"></path>
</symbol>
<symbol id="icon-cerrar-negro" viewBox="0 0 32 32">
<path d="M26.667 9.081l-1.97-1.97-7.808 7.808-7.808-7.808-1.97 1.97 7.808 7.808-7.808 7.808 1.97 1.97 7.808-7.808 7.808 7.808 1.97-1.97-7.808-7.808 7.808-7.808z"></path>
</symbol>
<symbol id="icon-Cliente-4" viewBox="0 0 67 32">
<path d="M22.181 13.902h-0.001c-0.947 0-1.715 0.682-1.715 1.524v0.001c0 0.842 0.768 1.525 1.715 1.525h0.001c0.947 0 1.715-0.683 1.715-1.525v-0.001c0-0.841-0.768-1.524-1.715-1.524zM34.842 13.415c-0.003-1.169-0.527-2.29-1.457-3.117s-2.191-1.293-3.507-1.295c-1.316 0.002-2.578 0.468-3.509 1.295s-1.455 1.948-1.458 3.118v6.449s9.929-0.983 9.931-6.447v-0.001zM16.988 21.98c0.002 0.814 0.367 1.594 1.015 2.169s1.525 0.9 2.44 0.902c0.915-0.002 1.792-0.327 2.44-0.902s1.012-1.355 1.015-2.168v-4.487s-6.909 0.685-6.909 4.486zM20.442 22.784c-0.179 0-0.354-0.047-0.503-0.136-0.145-0.085-0.259-0.208-0.331-0.356l-0.002-0.005c-0.043-0.090-0.069-0.196-0.069-0.307 0-0.056 0.006-0.11 0.018-0.162l-0.001 0.005c0.035-0.156 0.121-0.299 0.247-0.412s0.288-0.189 0.463-0.22c0.053-0.010 0.114-0.016 0.177-0.016 0.124 0 0.243 0.022 0.353 0.063l-0.007-0.002c0.165 0.061 0.307 0.164 0.406 0.296s0.152 0.288 0.152 0.446c0 0.001 0 0.001 0 0.002 0 0.111-0.025 0.217-0.070 0.311l0.002-0.004c-0.049 0.103-0.115 0.19-0.195 0.261l-0.001 0.001c-0.084 0.075-0.184 0.134-0.294 0.175-0.103 0.039-0.221 0.061-0.345 0.061-0.001 0-0.001 0-0.002 0h0v-0.003zM26.758 21.344v1.685h-0.347v-1.685h0.348zM27.429 22.065v0.271h-0.766v-0.271h0.766zM27.51 21.344v0.272h-0.847v-0.272h0.847zM29.096 22.148v0.080c0 0.128-0.017 0.243-0.052 0.345-0.033 0.1-0.084 0.187-0.148 0.261l0.001-0.001c-0.063 0.071-0.139 0.125-0.227 0.163-0.083 0.036-0.179 0.057-0.28 0.057-0.004 0-0.007-0-0.011-0h0.001c-0.106 0-0.203-0.019-0.291-0.056-0.089-0.039-0.165-0.094-0.226-0.163l-0.001-0.001c-0.064-0.073-0.115-0.16-0.148-0.255l-0.002-0.005c-0.033-0.098-0.052-0.212-0.052-0.329 0-0.005 0-0.011 0-0.016v0.001-0.080c0-0.129 0.017-0.244 0.052-0.345s0.084-0.188 0.147-0.26c0.064-0.072 0.14-0.126 0.227-0.164 0.088-0.038 0.185-0.056 0.291-0.056s0.203 0.019 0.29 0.056c0.088 0.038 0.164 0.093 0.227 0.164s0.113 0.159 0.148 0.261c0.036 0.101 0.053 0.216 0.053 0.345zM28.745 22.228v-0.082c0-0.090-0.008-0.168-0.024-0.236-0.014-0.065-0.039-0.122-0.073-0.173l0.001 0.002c-0.029-0.044-0.068-0.079-0.114-0.103l-0.002-0.001c-0.044-0.023-0.095-0.036-0.15-0.036-0.002 0-0.004 0-0.006 0h0c-0.059 0-0.111 0.012-0.156 0.036-0.047 0.025-0.085 0.061-0.114 0.103l-0.001 0.001c-0.032 0.049-0.056 0.107-0.070 0.168l-0.001 0.004c-0.016 0.067-0.025 0.144-0.025 0.223 0 0.005 0 0.009 0 0.014v-0.001 0.082c0 0.088 0.008 0.167 0.024 0.236s0.040 0.126 0.072 0.173c0.032 0.046 0.070 0.081 0.116 0.105s0.098 0.036 0.156 0.036c0.058 0 0.111-0.012 0.156-0.036 0.047-0.026 0.086-0.061 0.114-0.104l0.001-0.001c0.031-0.047 0.055-0.105 0.071-0.173s0.024-0.147 0.024-0.236zM30.223 22.589c0-0.001 0-0.002 0-0.004 0-0.028-0.005-0.054-0.014-0.079l0 0.002c-0.010-0.027-0.027-0.050-0.049-0.067l-0-0c-0.029-0.024-0.062-0.044-0.098-0.060l-0.003-0.001c-0.045-0.021-0.101-0.042-0.158-0.060l-0.010-0.003c-0.089-0.028-0.161-0.057-0.231-0.088l0.013 0.005c-0.069-0.031-0.128-0.067-0.183-0.109l0.002 0.002c-0.050-0.040-0.090-0.088-0.121-0.142l-0.001-0.002c-0.028-0.053-0.044-0.116-0.044-0.183 0-0.003 0-0.006 0-0.009v0c0-0.070 0.016-0.134 0.046-0.191 0.031-0.058 0.074-0.107 0.13-0.148 0.056-0.042 0.121-0.074 0.197-0.096 0.077-0.023 0.16-0.034 0.251-0.034 0.124 0 0.233 0.022 0.325 0.067s0.164 0.106 0.215 0.184c0.052 0.078 0.078 0.167 0.078 0.267h-0.345c0-0.002 0-0.003 0-0.005 0-0.046-0.012-0.088-0.032-0.126l0.001 0.001c-0.021-0.039-0.053-0.069-0.091-0.089l-0.001-0.001c-0.042-0.020-0.091-0.032-0.142-0.032-0.004 0-0.009 0-0.013 0l0.001-0c-0.004-0-0.008-0-0.012-0-0.050 0-0.098 0.010-0.141 0.029l0.002-0.001c-0.037 0.015-0.068 0.040-0.090 0.072l-0 0.001c-0.019 0.028-0.030 0.062-0.030 0.099 0 0.001 0 0.002 0 0.003v-0c0 0.028 0.007 0.055 0.021 0.078 0.017 0.026 0.039 0.047 0.064 0.064l0.001 0.001c0.028 0.020 0.063 0.040 0.105 0.057s0.090 0.035 0.145 0.052c0.092 0.028 0.172 0.059 0.242 0.094 0.067 0.032 0.125 0.072 0.177 0.118l-0.001-0.001c0.047 0.043 0.083 0.092 0.107 0.147s0.036 0.117 0.036 0.186c0 0.005 0 0.011 0 0.016 0 0.134-0.065 0.253-0.166 0.327l-0.001 0.001c-0.054 0.040-0.119 0.071-0.193 0.091s-0.158 0.032-0.251 0.032c-0.088-0-0.173-0.012-0.253-0.034l0.007 0.002c-0.084-0.023-0.158-0.057-0.224-0.102l0.003 0.002c-0.065-0.045-0.118-0.102-0.156-0.169l-0.001-0.003c-0.040-0.070-0.059-0.152-0.059-0.247h0.348c0 0.053 0.008 0.097 0.024 0.133 0.015 0.035 0.039 0.065 0.067 0.088l0 0c0.030 0.022 0.066 0.039 0.105 0.048l0.002 0c0.041 0.010 0.087 0.015 0.137 0.015 0.004 0 0.008 0 0.012 0 0.049 0 0.096-0.009 0.139-0.027l-0.003 0.001c0.068-0.028 0.116-0.093 0.116-0.17 0-0.001 0-0.001 0-0.002v0zM31.559 21.344v1.685h-0.346v-1.685h0.346zM32.078 21.344v0.272h-1.375v-0.272h1.375zM33.407 22.759v0.271h-0.897v-0.271h0.897zM32.623 21.344v1.685h-0.348v-1.685h0.348zM33.29 22.031v0.264h-0.78v-0.264h0.78zM33.406 21.344v0.272h-0.896v-0.272h0.896zM33.609 21.344h0.628c0.129 0 0.24 0.020 0.333 0.058s0.165 0.096 0.215 0.171c0.050 0.076 0.075 0.169 0.075 0.279 0 0.090-0.015 0.168-0.046 0.232s-0.074 0.118-0.127 0.16l-0.001 0.001c-0.055 0.042-0.12 0.077-0.189 0.101l-0.005 0.001-0.11 0.058h-0.546l-0.002-0.271h0.407c0.003 0 0.007 0 0.011 0 0.051 0 0.099-0.012 0.142-0.033l-0.002 0.001c0.039-0.020 0.070-0.051 0.090-0.089l0.001-0.001c0.020-0.037 0.031-0.081 0.031-0.128 0-0.002-0-0.004-0-0.006v0c0-0.002 0-0.005 0-0.008 0-0.048-0.011-0.093-0.031-0.134l0.001 0.002c-0.020-0.039-0.052-0.070-0.090-0.090l-0.001-0.001c-0.042-0.020-0.091-0.032-0.143-0.032-0.004 0-0.008 0-0.012 0h-0.28v1.414h-0.348v-1.685zM34.552 23.030l-0.384-0.751 0.367-0.002 0.389 0.737v0.016h-0.371zM36.375 22.429h-0.429v-0.271h0.429c0.004 0 0.009 0 0.014 0 0.054 0 0.105-0.012 0.15-0.034l-0.002 0.001c0.040-0.021 0.071-0.052 0.091-0.091l0.001-0.001c0.018-0.040 0.029-0.087 0.029-0.137s-0.011-0.096-0.030-0.139l0.001 0.002c-0.020-0.044-0.051-0.080-0.090-0.104l-0.001-0.001c-0.043-0.025-0.094-0.040-0.149-0.040-0.005 0-0.009 0-0.014 0l0.001-0h-0.309v1.414h-0.348v-1.685h0.657c0.132 0 0.245 0.024 0.339 0.072s0.167 0.112 0.218 0.196 0.075 0.179 0.075 0.286c0 0.109-0.025 0.203-0.075 0.282s-0.122 0.141-0.217 0.184c-0.094 0.043-0.207 0.065-0.34 0.065zM38.377 22.759v0.271h-0.897v-0.271h0.897zM37.593 21.344v1.685h-0.347v-1.685h0.347zM38.26 22.031v0.264h-0.78v-0.264h0.78zM38.376 21.344v0.272h-0.896v-0.272h0.896zM39.356 21.344v1.685h-0.346v-1.685h0.346zM39.874 21.344v0.272h-1.375v-0.272h1.375zM41.203 22.759v0.271h-0.897v-0.271h0.897zM40.42 21.344v1.685h-0.347v-1.685h0.347zM41.086 22.031v0.264h-0.78v-0.264h0.78zM41.202 21.344v0.272h-0.896v-0.272h0.896zM41.406 21.344h0.629c0.129 0 0.24 0.020 0.332 0.058s0.165 0.096 0.215 0.171c0.050 0.076 0.075 0.169 0.075 0.279 0 0.090-0.015 0.168-0.046 0.232s-0.074 0.118-0.127 0.16l-0.001 0.001c-0.055 0.042-0.119 0.077-0.188 0.101l-0.005 0.001-0.11 0.058h-0.546l-0.002-0.271h0.406c0.003 0 0.007 0 0.011 0 0.051 0 0.099-0.012 0.142-0.033l-0.002 0.001c0.039-0.021 0.070-0.051 0.090-0.089l0.001-0.001c0.020-0.037 0.031-0.081 0.031-0.128 0-0.002-0-0.004-0-0.007v0c0-0.002 0-0.005 0-0.008 0-0.048-0.011-0.093-0.031-0.134l0.001 0.002c-0.020-0.039-0.052-0.070-0.090-0.090l-0.001-0.001c-0.042-0.020-0.091-0.032-0.143-0.032-0.004 0-0.008 0-0.011 0h-0.281v1.414h-0.347v-1.685zM42.348 23.030l-0.384-0.751 0.367-0.002 0.389 0.737v0.016h-0.371zM43.802 22.589c0-0.001 0-0.002 0-0.003 0-0.028-0.005-0.055-0.014-0.080l0.001 0.002c-0.010-0.027-0.027-0.050-0.048-0.067l-0-0c-0.029-0.024-0.062-0.044-0.098-0.060l-0.003-0.001c-0.045-0.021-0.101-0.042-0.158-0.060l-0.010-0.003c-0.089-0.028-0.161-0.056-0.231-0.088l0.013 0.005c-0.069-0.031-0.128-0.067-0.183-0.109l0.002 0.002c-0.050-0.040-0.091-0.088-0.122-0.142l-0.001-0.002c-0.028-0.053-0.044-0.116-0.044-0.182 0-0.003 0-0.006 0-0.010v0c-0-0.002-0-0.003-0-0.005 0-0.068 0.017-0.132 0.047-0.188l-0.001 0.002c0.031-0.058 0.074-0.107 0.13-0.148s0.122-0.074 0.193-0.095l0.004-0.001c0.076-0.023 0.16-0.034 0.251-0.034 0.124 0 0.233 0.022 0.326 0.067s0.164 0.106 0.215 0.184c0.052 0.078 0.078 0.167 0.078 0.267h-0.345c0-0.002 0-0.003 0-0.005 0-0.046-0.012-0.088-0.032-0.126l0.001 0.001c-0.021-0.039-0.053-0.069-0.092-0.089l-0.001-0.001c-0.042-0.020-0.090-0.032-0.142-0.032-0.005 0-0.009 0-0.014 0l0.001-0c-0.004-0-0.008-0-0.012-0-0.050 0-0.098 0.010-0.141 0.029l0.002-0.001c-0.037 0.015-0.068 0.040-0.090 0.072l-0 0.001c-0.019 0.028-0.030 0.062-0.030 0.099 0 0.001 0 0.002 0 0.003v-0c0 0.028 0.007 0.055 0.021 0.078 0.017 0.026 0.039 0.047 0.064 0.064l0.001 0.001c0.028 0.020 0.064 0.040 0.105 0.057s0.090 0.035 0.145 0.052c0.092 0.028 0.172 0.059 0.242 0.094s0.129 0.074 0.176 0.117c0.047 0.043 0.083 0.092 0.107 0.147s0.036 0.117 0.036 0.186c0 0.073-0.014 0.139-0.043 0.197s-0.070 0.107-0.124 0.147c-0.054 0.040-0.119 0.071-0.193 0.091s-0.159 0.032-0.251 0.032c-0.088-0-0.173-0.012-0.253-0.034l0.007 0.002c-0.084-0.023-0.158-0.057-0.224-0.102l0.003 0.002c-0.065-0.044-0.118-0.102-0.156-0.169l-0.001-0.003c-0.039-0.070-0.059-0.152-0.059-0.247h0.348c0 0.053 0.008 0.097 0.025 0.133s0.039 0.065 0.068 0.088l0.001 0c0.030 0.022 0.066 0.039 0.104 0.048l0.002 0c0.042 0.010 0.087 0.015 0.137 0.015 0.004 0 0.008 0 0.012 0 0.049 0 0.096-0.009 0.139-0.027l-0.002 0.001c0.068-0.027 0.116-0.093 0.116-0.169 0-0.001 0-0.002-0-0.003v0z"></path>
</symbol>
</defs>
</svg>
